# xmcd
#
# Track frame offsets:
#	150
#	20381
#	38321
#	58519
#
# Disc length: 1018 seconds
#
# Revision: 0
# Processed by: cddbd v1.5PL3 Copyright (c) Steve Scherf et al.
# Submitted via: dBpowerAMP V4.0
#
DISCID=2103f804
DTITLE=Tremendo - El loco soy yo
DYEAR=2004
DGENRE=Hip-Hop
TTITLE0=el loco soy yo
TTITLE1=se llevarte
TTITLE2=el loco soy yo (instrumental)
TTITLE3=se llevarte (instrumental)
EXTD=
EXTT0=
EXTT1=
EXTT2=
EXTT3=
PLAYORDER=
